# xmcd
#
# Track frame offsets:
#	150
#	83397
#	177167
#
# Disc length: 2850 seconds
#
# Revision: 1
# Processed by: cddbd v1.5.2PL0 Copyright (c) Steve Scherf et al.
# Submitted via: audiograbber 1.83.01
#
DISCID=130b2003
DTITLE=Grateful Dead - 79-11-01 Nassau Veterans Memorial Coliseum, Uniondale NY
DYEAR=1900
DGENRE=
TTITLE0=Scarlet Begonias
TTITLE1=Fire On The Mountain
TTITLE2=Samson and Delilah
EXTD=
EXTT0=
EXTT1=
EXTT2=
PLAYORDER=
